<mxfile host="65bd71144e" modified="2020-10-14T20:31:13.615Z" agent="5.0 (Windows NT 10.0; Win64; x64) AppleWebKit/537.36 (KHTML, like Gecko) Code/1.50.0 Chrome/83.0.4103.122 Electron/9.2.1 Safari/537.36" version="13.6.5" etag="oaM9ZLB7Ty62Bi5amvRD">
    <diagram id="0TwQXpbJVxjR2dPgSoAW" name="Page-1">
        <mxGraphModel dx="556" dy="301" grid="1" gridSize="10" guides="1" tooltips="1" connect="1" arrows="1" fold="1" page="1" pageScale="1" pageWidth="850" pageHeight="1100" math="0" shadow="0">
            <root>
                <mxCell id="0"/>
                <mxCell id="1" parent="0"/>
                <mxCell id="2" value="" style="group" vertex="1" connectable="0" parent="1">
                    <mxGeometry x="349" y="455" width="130" height="130" as="geometry"/>
                </mxCell>
                <mxCell id="3" value="&lt;font style=&quot;font-size: 10px&quot;&gt;Structure's&lt;br&gt;Bounding Radius&lt;br&gt;&lt;/font&gt;" style="ellipse;whiteSpace=wrap;html=1;aspect=fixed;" vertex="1" parent="2">
                    <mxGeometry y="50" width="71.3" height="71.3" as="geometry"/>
                </mxCell>
                <mxCell id="4" value="" style="html=1;verticalLabelPosition=bottom;align=center;labelBackgroundColor=#ffffff;verticalAlign=top;strokeWidth=2;shadow=0;dashed=0;shape=mxgraph.ios7.icons.eye;direction=south;rotation=-205;strokeColor=#0080F0;" vertex="1" parent="2">
                    <mxGeometry x="115.36398518548805" y="36.5625" width="10.43381777495434" height="24.375" as="geometry"/>
                </mxCell>
                <mxCell id="5" value="" style="endArrow=classic;html=1;exitX=0.5;exitY=0;exitDx=0;exitDy=0;" edge="1" parent="2" source="3">
                    <mxGeometry width="50" height="50" relative="1" as="geometry">
                        <mxPoint x="96.19831991092755" y="81.25" as="sourcePoint"/>
                        <mxPoint x="36" y="5" as="targetPoint"/>
                    </mxGeometry>
                </mxCell>
                <mxCell id="6" value="" style="endArrow=classic;html=1;entryX=0.975;entryY=0.331;entryDx=0;entryDy=0;entryPerimeter=0;fillColor=#dae8fc;strokeColor=#0080F0;" edge="1" parent="2" source="4" target="3">
                    <mxGeometry width="50" height="50" relative="1" as="geometry">
                        <mxPoint x="134.46161771712946" y="84.86551933078759" as="sourcePoint"/>
                        <mxPoint x="118.39793219806344" y="77.92252346329697" as="targetPoint"/>
                    </mxGeometry>
                </mxCell>
                <mxCell id="7" value="" style="endArrow=classic;html=1;exitX=1;exitY=0;exitDx=0;exitDy=0;" edge="1" parent="2" source="3">
                    <mxGeometry width="50" height="50" relative="1" as="geometry">
                        <mxPoint x="22.199612287136894" y="65" as="sourcePoint"/>
                        <mxPoint x="96.19831991092654" y="16.25" as="targetPoint"/>
                    </mxGeometry>
                </mxCell>
                <mxCell id="8" value="" style="verticalLabelPosition=bottom;verticalAlign=top;html=1;shape=mxgraph.basic.arc;startAngle=0.16341291936744487;endAngle=0.26337097470474036;strokeColor=#0080F0;strokeWidth=2;" vertex="1" parent="2">
                    <mxGeometry x="22.199612287136894" y="32.5" width="88.79844914854758" height="97.5" as="geometry"/>
                </mxCell>
                <mxCell id="9" value="" style="endArrow=classic;html=1;exitX=1;exitY=0.5;exitDx=0;exitDy=0;" edge="1" parent="1" source="3">
                    <mxGeometry width="50" height="50" relative="1" as="geometry">
                        <mxPoint x="569" y="535" as="sourcePoint"/>
                        <mxPoint x="469" y="541" as="targetPoint"/>
                    </mxGeometry>
                </mxCell>
            </root>
        </mxGraphModel>
    </diagram>
</mxfile>